# xmcd
#
# Track frame offsets:
#	183
#	21183
#	34395
#	46345
#	59858
#	73183
#	90083
#	101833
#	112933
#	128283
#	140270
#	150820
#	162220
#	174125
#	184033
#	195870
#	213133
#	224358
#	236620
#	247645
#
# Disc length: 3574
#
# Revision: 3
# Processed by: cddbd v1.5.1PL0 Copyright (c) Steve Scherf et al.
# Submitted via: CDex 1.40Beta8
# Normalized: r2:TDELIM( - )
#
DISCID=f80df414
DTITLE=Various Artist - Giants Of Soul [CD3/4)
DYEAR=1990
DGENRE=Soul
TTITLE0=Gladys Knight and The Pips - Midnight Train To Georgia
TTITLE1=Sam and Dave - I Thank You
TTITLE2=Brook Benton - The Boll Weevil Song
TTITLE3=The Drifters - On Broadway
TTITLE4=Sam and Dave - Soul Man
TTITLE5=Gladys Knight and The Pips - Best Thing That Ever Happened To Me
TTITLE6=The Drifters - Some Kind Of Wonderful
TTITLE7=Brook Benton - It's Just A Matter Of Time
TTITLE8=Gladys Knight and The Pips - I've Got To Use My Imagination
TTITLE9=Sam and Dave - Hold On, I'm Coming!
TTITLE10=The Drifters - True Love, True Love
TTITLE11=Brook Benton - So Many Ways
TTITLE12=Sam and Dave - Soothe Me
TTITLE13=The Drifters - Some Kind Of Wonderful
TTITLE14=Brook Benton - Kiddio
TTITLE15=Gladys Knight and The Pips - So Sad The Song
TTITLE16=Sam and Dave - You Don't Know What You Mean To Me
TTITLE17=Brook Benton - Hotel Happiness
TTITLE18=The Drifters - Sweets For My Sweet
TTITLE19=Gladys Knight and The Pips - Try To Remember (the Way We Were)
EXTD=YEAR: 1990 ID3G: 42
EXTT0=Gladys Knight and The Pips
EXTT1=Sam and Dave
EXTT2=Brook Benton
EXTT3=The Drifters
EXTT4=Sam and Dave
EXTT5=Gladys Knight and The Pips
EXTT6=The Drifters
EXTT7=Brook Benton
EXTT8=Gladys Knight and The Pips
EXTT9=Sam and Dave
EXTT10=The Drifters
EXTT11=Brook Benton
EXTT12=Sam and Dave
EXTT13=The Drifters
EXTT14=Brook Benton
EXTT15=Gladys Knight and The Pips
EXTT16=Sam and Dave
EXTT17=Brook Benton
EXTT18=The Drifters
EXTT19=Gladys Knight and The Pips
PLAYORDER=
